{
    "asset" : {
        "generator" : "Khronos glTF Blender I/O v1.8.19",
        "version" : "2.0"
    },
    "scene" : 0,
    "scenes" : [
        {
            "name" : "Scene",
            "nodes" : [
                0
            ]
        }
    ],
    "nodes" : [
        {
            "mesh" : 0,
            "name" : "Mesh_0.001",
            "scale" : [
                2.354585886001587,
                2.354585886001587,
                2.354585886001587
            ],
            "translation" : [
                -14.068531036376953,
                -16.89263916015625,
                14.385285377502441
            ]
        }
    ],
    "materials" : [
        {
            "name" : "Material.004",
            "pbrMetallicRoughness" : {
                "baseColorTexture" : {
                    "index" : 0
                },
                "metallicFactor" : 0,
                "roughnessFactor" : 0
            }
        }
    ],
    "meshes" : [
        {
            "name" : "Mesh_0.003",
            "primitives" : [
                {
                    "attributes" : {
                        "POSITION" : 0,
                        "NORMAL" : 1,
                        "TEXCOORD_0" : 2
                    },
                    "indices" : 3,
                    "material" : 0
                }
            ]
        }
    ],
    "textures" : [
        {
            "sampler" : 0,
            "source" : 0
        }
    ],
    "images" : [
        {
            "bufferView" : 4,
            "mimeType" : "image/png",
            "name" : "Image_0"
        }
    ],
    "accessors" : [
        {
            "bufferView" : 0,
            "componentType" : 5126,
            "count" : 10278,
            "max" : [
                12.600000381469727,
                18.899999618530273,
                0
            ],
            "min" : [
                0,
                6.300000190734863,
                -12.600000381469727
            ],
            "type" : "VEC3"
        },
        {
            "bufferView" : 1,
            "componentType" : 5126,
            "count" : 10278,
            "type" : "VEC3"
        },
        {
            "bufferView" : 2,
            "componentType" : 5126,
            "count" : 10278,
            "type" : "VEC2"
        },
        {
            "bufferView" : 3,
            "componentType" : 5123,
            "count" : 10680,
            "type" : "SCALAR"
        }
    ],
    "bufferViews" : [
        {
            "buffer" : 0,
            "byteLength" : 123336,
            "byteOffset" : 0
        },
        {
            "buffer" : 0,
            "byteLength" : 123336,
            "byteOffset" : 123336
        },
        {
            "buffer" : 0,
            "byteLength" : 82224,
            "byteOffset" : 246672
        },
        {
            "buffer" : 0,
            "byteLength" : 21360,
            "byteOffset" : 328896
        },
        {
            "buffer" : 0,
            "byteLength" : 209,
            "byteOffset" : 350256
        }
    ],
    "samplers" : [
        {
            "magFilter" : 9729,
            "minFilter" : 9987
        }
    ],
    "buffers" : [
        {
            "byteLength" : 350468,
            "uri" : "data:application/octet-stream;base64,"
        }
    ]
}
