{
    "asset" : {
        "generator" : "Khronos glTF Blender I/O v1.8.19",
        "version" : "2.0"
    },
    "scene" : 0,
    "scenes" : [
        {
            "name" : "Scene",
            "nodes" : [
                0
            ]
        }
    ],
    "nodes" : [
        {
            "mesh" : 0,
            "name" : "Mesh_0",
            "scale" : [
                15.756874084472656,
                15.756874084472656,
                15.756874084472656
            ],
            "translation" : [
                1.1563832759857178,
                0.012125231325626373,
                -2.6375062465667725
            ]
        }
    ],
    "materials" : [
        {
            "name" : "Material.001",
            "pbrMetallicRoughness" : {
                "baseColorTexture" : {
                    "index" : 0
                },
                "metallicFactor" : 0,
                "roughnessFactor" : 0
            }
        }
    ],
    "meshes" : [
        {
            "name" : "Mesh_0",
            "primitives" : [
                {
                    "attributes" : {
                        "POSITION" : 0,
                        "NORMAL" : 1,
                        "TEXCOORD_0" : 2
                    },
                    "indices" : 3,
                    "material" : 0
                }
            ]
        }
    ],
    "textures" : [
        {
            "sampler" : 0,
            "source" : 0
        }
    ],
    "images" : [
        {
            "bufferView" : 4,
            "mimeType" : "image/png",
            "name" : "Image_0"
        }
    ],
    "accessors" : [
        {
            "bufferView" : 0,
            "componentType" : 5126,
            "count" : 1365,
            "max" : [
                0.6000000238418579,
                2,
                0.699999988079071
            ],
            "min" : [
                -0.699999988079071,
                0,
                -0.5
            ],
            "type" : "VEC3"
        },
        {
            "bufferView" : 1,
            "componentType" : 5126,
            "count" : 1365,
            "type" : "VEC3"
        },
        {
            "bufferView" : 2,
            "componentType" : 5126,
            "count" : 1365,
            "type" : "VEC2"
        },
        {
            "bufferView" : 3,
            "componentType" : 5123,
            "count" : 1392,
            "type" : "SCALAR"
        }
    ],
    "bufferViews" : [
        {
            "buffer" : 0,
            "byteLength" : 16380,
            "byteOffset" : 0
        },
        {
            "buffer" : 0,
            "byteLength" : 16380,
            "byteOffset" : 16380
        },
        {
            "buffer" : 0,
            "byteLength" : 10920,
            "byteOffset" : 32760
        },
        {
            "buffer" : 0,
            "byteLength" : 2784,
            "byteOffset" : 43680
        },
        {
            "buffer" : 0,
            "byteLength" : 189,
            "byteOffset" : 46464
        }
    ],
    "samplers" : [
        {
            "magFilter" : 9729,
            "minFilter" : 9987
        }
    ],
    "buffers" : [
        {
            "byteLength" : 46656,
            "uri" : "data:application/octet-stream;base64,"
        }
    ]
}
